<svg width="88" height="88" viewBox="0 0 88 88" fill="none" xmlns="http://www.w3.org/2000/svg">
<g clip-path="url(#clip0)">
<path d="M23.532 0H3.1866C1.83842 0 0.735352 1.10306 0.735352 2.45125V22.7967C0.735352 24.1448 1.83842 25.2479 3.1866 25.2479H23.532C24.8802 25.2479 25.9833 24.1448 25.9833 22.7967V2.45125C25.9833 1.10306 24.8802 0 23.532 0ZM21.3259 20.5905H5.63786V4.90251H21.3259V20.5905Z" fill="#63E5EF" fill-opacity="0.55"/>
<path d="M54.1727 0H33.8273C32.4791 0 31.376 1.10306 31.376 2.45125V22.7967C31.376 24.1448 32.4791 25.2479 33.8273 25.2479H54.1727C55.5209 25.2479 56.624 24.1448 56.624 22.7967V2.45125C56.624 1.10306 55.5209 0 54.1727 0ZM51.9666 20.5905H36.2785V4.90251H51.9666V20.5905Z" fill="#63E5EF" fill-opacity="0.55"/>
<path d="M23.532 30.8857H3.1866C1.83842 30.8857 0.735352 31.9888 0.735352 33.337V53.6824C0.735352 55.0306 1.83842 56.1336 3.1866 56.1336H23.532C24.8802 56.1336 25.9833 55.0306 25.9833 53.6824V33.337C25.9833 31.9888 24.8802 30.8857 23.532 30.8857ZM21.3259 51.2311H5.63786V35.7882H21.3259V51.2311Z" fill="#63E5EF" fill-opacity="0.55"/>
<path d="M54.1727 30.8857H33.8273C32.4791 30.8857 31.376 31.9888 31.376 33.337V53.6824C31.376 55.0306 32.4791 56.1336 33.8273 56.1336H54.1727C55.5209 56.1336 56.624 55.0306 56.624 53.6824V33.337C56.624 31.9888 55.5209 30.8857 54.1727 30.8857ZM51.9666 51.2311H36.2785V35.7882H51.9666V51.2311Z" fill="#63E5EF" fill-opacity="0.55"/>
<path d="M84.8134 0H64.468C63.1198 0 62.0167 1.10306 62.0167 2.45125V22.7967C62.0167 24.1448 63.1198 25.2479 64.468 25.2479H84.8134C86.1616 25.2479 87.2646 24.1448 87.2646 22.7967V2.45125C87.2646 1.10306 86.1616 0 84.8134 0ZM82.6073 20.5905H66.9192V4.90251H82.6073V20.5905Z" fill="#63E5EF" fill-opacity="0.55"/>
<path d="M84.8134 30.8857H64.468C63.1198 30.8857 62.0167 31.9888 62.0167 33.337V53.6824C62.0167 55.0306 63.1198 56.1336 64.468 56.1336H84.8134C86.1616 56.1336 87.2646 55.0306 87.2646 53.6824V33.337C87.2646 31.9888 86.1616 30.8857 84.8134 30.8857ZM82.6073 51.2311H66.9192V35.7882H82.6073V51.2311Z" fill="#63E5EF" fill-opacity="0.55"/>
<path d="M23.532 62.752H3.1866C1.83842 62.752 0.735352 63.855 0.735352 65.2032V85.5486C0.735352 86.8968 1.83842 87.9999 3.1866 87.9999H23.532C24.8802 87.9999 25.9833 86.8968 25.9833 85.5486V65.2032C25.9833 63.855 24.8802 62.752 23.532 62.752ZM21.3259 83.3425H5.63786V67.6545H21.3259V83.3425Z" fill="#63E5EF" fill-opacity="0.55"/>
<path d="M54.1727 62.752H33.8273C32.4791 62.752 31.376 63.855 31.376 65.2032V85.5486C31.376 86.8968 32.4791 87.9999 33.8273 87.9999H54.1727C55.5209 87.9999 56.624 86.8968 56.624 85.5486V65.2032C56.624 63.855 55.5209 62.752 54.1727 62.752ZM51.9666 83.3425H36.2785V67.6545H51.9666V83.3425Z" fill="#63E5EF" fill-opacity="0.55"/>
<path d="M84.8134 62.752H64.468C63.1198 62.752 62.0167 63.855 62.0167 65.2032V85.5486C62.0167 86.8968 63.1198 87.9999 64.468 87.9999H84.8134C86.1616 87.9999 87.2646 86.8968 87.2646 85.5486V65.2032C87.2646 63.855 86.1616 62.752 84.8134 62.752ZM82.6073 83.3425H66.9192V67.6545H82.6073V83.3425Z" fill="#63E5EF" fill-opacity="0.55"/>
</g>
<defs>
<clipPath id="clip0">
<rect width="88" height="88" fill="white"/>
</clipPath>
</defs>
</svg>
