<svg width="84" height="84" viewBox="0 0 84 84" fill="none" xmlns="http://www.w3.org/2000/svg">
<g clip-path="url(#clip0)">
<path d="M78.5719 50.0719C73.3599 53.5172 68.5008 56.1936 64.1329 58.0311C53.6476 62.4358 47.3541 61.4773 43.0401 60.1463C39.6563 59.1015 36.5843 57.3622 33.3278 55.5204C27.107 51.9965 20.6598 48.3608 11.8104 49.5209C6.60355 50.2068 4.4149 52.4724 2.8157 54.1254C2.31937 54.6405 1.89052 55.0847 1.40956 55.447C-0.134108 56.6122 -0.439939 58.806 0.723583 60.3488C1.8871 61.8882 4.07746 62.1966 5.62541 61.0348C6.54034 60.3419 7.23571 59.6227 7.84908 58.9896C9.151 57.6407 9.93864 56.8292 12.7219 56.4635C19.2656 55.6024 24.1854 58.3874 29.8817 61.6105C33.3176 63.5557 36.8696 65.5675 40.977 66.8327C44.0165 67.7707 47.0902 68.2431 50.2672 68.2431C55.427 68.2431 60.8576 66.9976 66.8427 64.4835C71.6138 62.4785 76.8573 59.5953 82.4298 55.9142C84.0426 54.8481 84.4852 52.6757 83.4199 51.0662C82.3537 49.4525 80.1813 49.01 78.5719 50.0719Z" fill="#63E5EF" fill-opacity="0.55"/>
<path d="M78.5719 34.3263C73.3599 37.7715 68.5008 40.448 64.1329 42.2855C53.6476 46.6885 47.3541 45.73 43.0401 44.4007C39.6563 43.3559 36.5843 41.6166 33.3278 39.7748C27.107 36.2509 20.6598 32.6151 11.8104 33.7752C6.60355 34.4612 4.4149 36.7268 2.8157 38.3798C2.31937 38.8949 1.89052 39.3391 1.40956 39.7014C-0.134108 40.8666 -0.439939 43.0604 0.723583 44.6032C1.8871 46.1426 4.07746 46.4527 5.62541 45.2892C6.54034 44.5963 7.23571 43.877 7.84908 43.244C9.151 41.8951 9.93864 41.0836 12.7219 40.7179C19.2656 39.8517 24.1854 42.6435 29.8817 45.8649C33.3176 47.8101 36.8696 49.8219 40.977 51.0871C44.0165 52.0251 47.0902 52.4975 50.2672 52.4975C55.427 52.4975 60.8576 51.252 66.8427 48.7379C71.6138 46.7329 76.8573 43.8497 82.4298 40.1686C84.0426 39.1025 84.4852 36.9301 83.4199 35.3206C82.3537 33.7052 80.1813 33.2661 78.5719 34.3263Z" fill="#63E5EF" fill-opacity="0.55"/>
<path d="M5.60831 27.4977C6.52324 26.8048 7.21947 26.0855 7.83198 25.4525C9.13561 24.1036 9.92068 23.2895 12.7048 22.9256C19.2476 22.0602 24.1674 24.8503 29.8637 28.0734C33.3005 30.0186 36.8517 32.0304 40.9599 33.2956C43.9968 34.2319 47.0705 34.7043 50.2467 34.7043C55.4057 34.7043 60.838 33.4579 66.8247 30.9438C71.5959 28.9388 76.8394 26.0573 82.4118 22.3763C84.0247 21.311 84.4672 19.1403 83.4019 17.5283C82.3384 15.9171 80.1711 15.4746 78.5539 16.5382C73.342 19.9835 68.4837 22.6582 64.115 24.4957C53.6245 28.9021 47.3353 27.9436 43.0221 26.6126C39.6392 25.5678 36.5663 23.8285 33.3107 21.9867C27.089 18.4629 20.6632 14.8271 11.7933 15.9872C6.58645 16.6714 4.3978 18.9387 2.7986 20.5917C2.30141 21.1068 1.87257 21.5528 1.39161 21.9133C-0.151208 23.0785 -0.457892 25.2723 0.705629 26.8151C1.87086 28.3511 4.06122 28.6612 5.60831 27.4977Z" fill="#63E5EF" fill-opacity="0.55"/>
</g>
<defs>
<clipPath id="clip0">
<rect width="84" height="84" fill="white"/>
</clipPath>
</defs>
</svg>
